<?xml version="1.0" encoding="utf-8"?>
<svg version="1.1" xmlns="http://www.w3.org/2000/svg" width="896" height="820" xmlns:bx="https://boxy-svg.com">
  <g transform="matrix(15.371225, 0, 0, 15.824972, 174.119873, 649.736023)" style="transform-origin: 241.905px -296.3px;">
    <rect x="218.035" y="-317.54" width="51.086" height="46.824" rx="12" ry="12" style="fill: rgb(216, 216, 216); stroke: rgb(0, 0, 0); stroke-opacity: 0; paint-order: fill; fill-rule: evenodd;"/>
    <g transform="matrix(0.07146, 0, 0, 0.067365, 210.491272, -285.156281)" style="">
      <path d="M 438.04 -375.92 C 438.411 -360.45 438.411 -360.45 436.087 -352.98 C 435.831 -350.77 435.831 -350.77 437.563 -348.8 C 440.586 -346.51 443.276 -345.67 446.915 -344.61 C 457.128 -341.45 466.22 -336.67 475.352 -331.11 C 480.256 -328.18 484.402 -326.77 490.04 -325.92 C 490.149 -326.5 490.259 -327.08 490.372 -327.68 C 491.589 -333.68 493.02 -338.52 497.04 -343.3 C 501.633 -345.79 505.936 -345.75 511.04 -344.92 C 513.719 -344.03 516.354 -343.03 518.998 -342.03 C 541.028 -333.9 541.028 -333.9 564.024 -334.44 C 569.712 -335.81 576.038 -335.6 581.54 -333.74 C 584.478 -331.61 586.241 -330.11 588.04 -326.92 C 588.736 -322.38 588.216 -318.2 586.977 -313.8 C 585.721 -308.61 585.844 -305.2 588.31 -300.51 C 590.015 -297.73 591.791 -295.01 593.602 -292.3 C 594.883 -290.34 596.163 -288.37 597.442 -286.41 C 598.062 -285.47 598.682 -284.52 599.321 -283.55 C 602.681 -278.42 605.91 -273.2 609.04 -267.92 C 609.433 -267.26 609.826 -266.61 610.231 -265.93 C 612.632 -261.55 613.953 -256.95 615.352 -252.17 C 617.555 -244.71 620.781 -238.46 625.04 -231.92 C 626.001 -230.43 626.959 -228.93 627.915 -227.42 C 628.499 -226.54 628.499 -226.54 629.094 -225.64 C 630.04 -223.92 630.04 -223.92 630.423 -221.83 C 630.859 -219.75 630.859 -219.75 632.907 -218.87 C 633.611 -218.56 634.315 -218.25 635.04 -217.92 C 636.61 -216.48 636.61 -216.48 638.165 -214.8 C 640.989 -211.87 643.95 -209.35 647.165 -206.86 C 656.772 -199.24 656.772 -199.24 658.04 -192.3 C 658.644 -189.04 658.968 -188.01 661.165 -185.36 C 668.537 -181.68 675.495 -184.77 682.825 -187.2 C 687.547 -188.74 692.294 -190.21 697.04 -191.67 C 698.545 -192.15 698.545 -192.15 700.081 -192.64 C 701.037 -192.93 701.993 -193.23 702.977 -193.53 C 703.832 -193.8 704.687 -194.07 705.567 -194.34 C 708.142 -194.95 710.405 -195.03 713.04 -194.92 C 715.848 -189.31 714.244 -181.76 712.602 -175.99 C 704.219 -151.22 691.154 -130.7 669.969 -115.16 C 666.763 -112.71 664.018 -110.08 661.309 -107.1 C 660.04 -105.92 660.04 -105.92 658.04 -105.92 C 657.783 -105.35 657.527 -104.77 657.262 -104.17 C 655.923 -101.71 654.395 -99.97 652.477 -97.924 C 648.393 -93.424 644.756 -88.682 641.153 -83.791 C 639.337 -81.327 637.478 -78.905 635.602 -76.487 C 633.548 -73.761 632.068 -71.216 631.04 -67.924 C 630.71 -67.924 630.38 -67.924 630.04 -67.924 C 630.026 -68.576 630.011 -69.229 629.997 -69.901 C 629.646 -76.333 628.728 -79.459 624.04 -83.924 C 619.526 -86.933 615.319 -86.841 610.04 -85.924 C 597.684 -79.466 594.624 -62.52 590.749 -50.332 C 589.872 -47.353 589.266 -44.344 588.665 -41.299 C 588.02 -38.799 588.02 -38.799 587.04 -36.924 C 584.904 -35.754 582.929 -35.288 580.555 -34.756 C 574.305 -32.689 569.733 -26.667 565.231 -22.053 C 556.292 -12.91 546.759 -4.919 536.04 2.076 C 535.38 1.746 534.72 1.416 534.04 1.076 C 534.573 0.745 535.107 0.413 535.657 0.072 C 551.72 -11.017 560.138 -32.463 564.04 -50.924 C 568.51 -76.217 563.072 -102.59 548.446 -123.7 C 535.614 -141.33 514.821 -152.51 494.04 -157.92 C 495.525 -162.87 495.525 -162.87 497.04 -167.92 C 480.87 -167.92 464.7 -167.92 448.04 -167.92 C 449.36 -165.28 450.68 -162.64 452.04 -159.92 C 452.04 -159.26 452.04 -158.6 452.04 -157.92 C 450.963 -157.58 449.887 -157.24 448.778 -156.89 C 433.571 -151.92 420.021 -144.52 408.926 -132.67 C 407.04 -130.92 407.04 -130.92 403.915 -130.8 C 395.871 -132.51 389.945 -137.66 385.04 -143.92 C 380.634 -147.91 377.038 -148.6 371.286 -148.38 C 363.6 -147.3 355.912 -144.68 348.852 -141.48 C 337.512 -136.52 325.915 -137.52 313.75 -137.96 C 311.283 -137.93 309.393 -137.59 307.04 -136.92 C 304.919 -136.76 302.792 -136.66 300.665 -136.61 C 299.013 -136.56 299.013 -136.56 297.329 -136.5 C 290.658 -137.36 286.167 -142.46 281.477 -146.92 C 277.045 -151.12 277.045 -151.12 272.356 -155.01 C 266.806 -159.59 263.299 -166.03 260.477 -172.55 C 257.753 -178.83 254.18 -183.61 249.54 -188.63 C 242.302 -196.57 239.59 -203.62 238.778 -214.4 C 239.086 -218.55 240.298 -220.88 242.352 -224.49 C 247.642 -234.29 250.973 -245.87 248.04 -256.92 C 247.872 -259.02 247.774 -261.13 247.727 -263.24 C 247.69 -264.33 247.652 -265.42 247.614 -266.54 C 248.136 -270.69 249.753 -273.52 252.04 -276.92 C 252.456 -277.55 252.872 -278.17 253.3 -278.81 C 254.69 -280.85 256.109 -282.86 257.54 -284.86 C 258.057 -285.59 258.575 -286.32 259.108 -287.07 C 262.864 -292.33 266.677 -297.55 270.54 -302.74 C 271.032 -303.4 271.523 -304.06 272.03 -304.75 C 274.498 -308.03 276.926 -311.21 280.04 -313.92 C 280.7 -313.92 281.36 -313.92 282.04 -313.92 C 282.04 -314.58 282.04 -315.24 282.04 -315.92 C 282.983 -316.25 282.983 -316.25 283.946 -316.59 C 290.656 -319.07 297.594 -321.67 301.317 -328.15 C 303.154 -332.52 304.278 -336.94 305.352 -341.55 C 306.892 -347.32 309.339 -351.2 314.04 -354.92 C 316.75 -356.36 319.484 -357.55 322.325 -358.71 C 327.439 -361 331.511 -364.61 335.727 -368.24 C 338.883 -370.54 341.519 -371.14 345.399 -370.58 C 346.582 -370.29 346.582 -370.29 347.79 -369.99 C 355.208 -368.4 360.669 -368.34 367.915 -370.8 C 389.65 -377.94 415.461 -376.13 438.04 -375.92 Z" fill="#985B0F" style="paint-order: fill; fill-rule: evenodd;"/>
      <path d="M 529.146 -131.85 C 531.681 -129.63 534.12 -127.35 536.52 -124.98 C 537.22 -124.3 537.92 -123.61 538.64 -122.9 C 553.91 -106.86 560.29 -85.142 559.77 -63.355 C 558.83 -42.077 550.46 -22.95 536.52 -6.984 C 535.97 -6.347 535.41 -5.71 534.85 -5.054 C 522.852 7.826 502.51 17.188 484.98 18.156 C 459.443 19.014 437.644 14.728 418.025 -2.577 C 400.518 -18.952 391.096 -40.908 389.235 -64.617 C 388.622 -88.041 397.278 -108.67 413.255 -125.68 C 414.003 -126.44 414.75 -127.2 415.521 -127.98 C 416.206 -128.68 416.892 -129.38 417.599 -130.1 C 426.166 -138.26 436.363 -143.47 447.396 -147.42 C 448.085 -147.67 448.774 -147.92 449.484 -148.17 C 476.33 -157.23 507.621 -149.31 529.146 -131.85 Z" fill="#165353" style="paint-order: fill; fill-rule: evenodd;"/>
      <path d="M 330.922 -77.298 C 335.874 -76.478 338.353 -74.368 341.672 -70.678 C 343.12 -68.154 343.939 -65.592 344.735 -62.803 C 344.97 -62.044 345.204 -61.285 345.446 -60.504 C 353.672 -33.22 353.672 -33.22 353.672 -25.678 C 352.022 -24.651 350.353 -23.655 348.672 -22.678 C 346.026 -20.214 345.69 -18.803 345.172 -15.178 C 345.961 3.272 364.799 20.971 377.215 33.127 C 381.822 37.243 386.763 41.353 392.672 43.322 C 390.64 39.588 388.545 37.109 385.297 34.385 C 372.579 23.206 351.666 4.487 350.422 -13.24 C 350.672 -16.678 350.672 -16.678 351.735 -18.615 C 354.937 -20.371 357.057 -20.144 360.672 -19.678 C 367.506 -17.317 372.181 -12.407 377.093 -7.329 C 381.95 -2.317 387.144 2.059 392.672 6.322 C 393.613 7.1 394.554 7.877 395.524 8.678 C 404.273 15.505 413.771 19.768 423.991 24.036 C 430.749 26.882 436.752 29.99 442.672 34.322 C 443.559 34.941 444.446 35.56 445.36 36.197 C 454.937 44.998 460.171 57.357 463.485 69.697 C 463.777 70.773 463.777 70.773 464.075 71.87 C 467.448 85.407 467.961 98.962 467.797 112.822 C 467.787 114.339 467.778 115.856 467.77 117.373 C 467.748 121.023 467.714 124.673 467.672 128.322 C 462.407 128.347 457.142 128.365 451.876 128.377 C 450.088 128.382 448.3 128.389 446.511 128.398 C 443.929 128.41 441.348 128.416 438.766 128.42 C 437.976 128.425 437.186 128.43 436.372 128.436 C 431.385 128.436 426.61 128.033 421.672 127.322 C 421.594 126.717 421.516 126.112 421.436 125.489 C 420.034 107.415 420.034 107.415 410.922 92.76 C 406.1 89.429 401.038 86.43 396.042 83.367 C 384.235 76.056 373.211 67.346 362.672 58.322 C 362.161 57.885 361.651 57.448 361.124 56.998 C 335.403 34.805 332.95 -4.193 328.192 -36.193 C 327.711 -39.421 327.208 -42.645 326.7 -45.869 C 322.992 -69.79 322.992 -69.79 325.993 -74.948 C 327.672 -76.678 327.672 -76.678 330.922 -77.298 Z" fill="#4C2D0D" style="paint-order: fill; fill-rule: evenodd;"/>
      <path d="M 616.447 -75.045 C 619.817 -74.425 619.817 -74.425 621.517 -72.675 C 625.117 -66.455 622.547 -57.055 621.387 -50.295 C 621.127 -48.795 621.127 -48.795 620.867 -47.265 C 616.147 -20.755 610.207 5.975 601.817 31.58 C 601.527 32.478 601.237 33.376 600.937 34.301 C 598.757 40.35 595.947 44.292 591.257 48.642 C 590.637 49.239 590.017 49.835 589.377 50.45 C 578.257 61.003 565.93 69.84 553.211 78.337 C 552.229 78.997 551.248 79.656 550.236 80.335 C 548.287 81.641 546.333 82.938 544.372 84.227 C 537.576 88.779 532.493 92.806 529.571 100.705 C 529.099 101.946 529.099 101.946 528.618 103.212 C 527.074 107.797 526.572 111.981 526.258 116.83 C 526.112 119.08 525.967 121.33 525.821 123.58 C 515.093 125.488 504.802 125.827 493.946 125.705 C 492.371 125.695 490.797 125.685 489.223 125.677 C 485.422 125.656 481.621 125.621 477.821 125.58 C 476.778 58.635 476.778 58.635 496.821 36.58 C 497.403 35.905 497.986 35.231 498.586 34.537 C 505.336 27.206 513.882 21.571 523.446 18.705 C 545.753 11.945 563.591 -3.405 578.447 -20.825 C 581.507 -24.375 581.507 -24.375 584.137 -24.725 C 585.467 -24.725 585.467 -24.725 586.817 -24.735 C 587.707 -24.745 588.597 -24.765 589.507 -24.785 C 590.267 -24.665 591.037 -24.545 591.817 -24.425 C 594.577 -20.295 594.377 -17.265 593.817 -12.425 C 591.917 -3.165 585.387 3.155 579.267 9.945 C 577.317 12.145 575.507 14.445 573.696 16.765 C 563.357 29.825 563.357 29.825 557.082 34.712 C 554.569 36.451 554.569 36.451 553.821 39.58 C 566.529 34.749 576.067 22.685 584.817 12.585 C 585.287 12.035 585.757 11.505 586.237 10.945 C 593.837 2.025 600.947 -8.295 600.187 -20.555 C 599.647 -23.295 598.467 -25.205 596.817 -27.425 C 595.117 -29.965 594.757 -31.015 595.247 -34.085 C 595.557 -35.085 595.877 -36.085 596.197 -37.115 C 596.547 -38.225 596.887 -39.335 597.247 -40.475 C 597.807 -42.215 597.807 -42.215 598.387 -43.985 C 598.737 -45.115 599.077 -46.245 599.437 -47.405 C 607.697 -73.535 607.697 -73.535 616.447 -75.045 Z" fill="#4D2D0D" style="paint-order: fill; fill-rule: evenodd;"/>
      <path d="M 469.079 -138.72 C 471.204 -135.78 471.204 -135.78 472.079 -132.72 C 473.069 -132.06 474.059 -131.4 475.079 -130.72 C 475.079 -130.06 475.079 -129.4 475.079 -128.72 C 475.822 -128.43 476.564 -128.14 477.329 -127.85 C 479.646 -126.9 481.858 -125.87 484.079 -124.72 C 484.038 -125.5 483.997 -126.29 483.954 -127.1 C 484.079 -129.72 484.079 -129.72 486.079 -131.72 C 489.091 -131.73 489.091 -131.73 492.767 -131.41 C 494.026 -131.3 495.285 -131.19 496.583 -131.08 C 500.112 -130.72 503.585 -130.33 507.079 -129.72 C 508.224 -129.57 508.224 -129.57 509.392 -129.41 C 511.079 -128.72 511.079 -128.72 512.267 -127.16 C 513.079 -124.72 513.079 -124.72 513.392 -120.91 C 513.802 -116.79 515.347 -114.73 517.892 -111.58 C 519.288 -109.39 519.612 -107.64 520.017 -105.1 C 520.89 -100.23 523.07 -98.63 527.079 -95.721 C 527.985 -94.706 528.861 -93.664 529.704 -92.596 C 531.733 -90.14 533.559 -88.588 536.079 -86.721 C 536.079 -86.061 536.079 -85.401 536.079 -84.721 C 540.039 -85.381 543.999 -86.041 548.079 -86.721 C 548.079 -80.715 547.816 -79.533 544.704 -74.846 C 544.078 -73.879 543.451 -72.912 542.806 -71.916 C 541.951 -70.83 541.951 -70.83 541.079 -69.721 C 540.419 -69.721 539.759 -69.721 539.079 -69.721 C 538.821 -69.159 538.563 -68.597 538.298 -68.018 C 536.937 -65.454 535.351 -63.269 533.579 -60.971 C 532.971 -60.172 532.362 -59.373 531.735 -58.549 C 531.189 -57.946 530.642 -57.343 530.079 -56.721 C 529.419 -56.721 528.759 -56.721 528.079 -56.721 C 526.772 -51.821 526.762 -46.759 527.079 -41.721 C 527.409 -41.391 527.739 -41.061 528.079 -40.721 C 528.205 -38.787 528.255 -36.847 528.267 -34.909 C 528.281 -33.85 528.295 -32.792 528.31 -31.702 C 528.079 -28.716 527.838 -27.124 526.079 -24.721 C 523.985 -23.631 523.985 -23.631 521.579 -22.784 C 517.954 -21.372 517.954 -21.372 515.642 -18.346 C 515.456 -17.48 515.27 -16.614 515.079 -15.721 C 513.865 -11.384 513.103 -8.984 509.079 -6.721 C 508.419 -6.721 507.759 -6.721 507.079 -6.721 C 507.079 -6.061 507.079 -5.401 507.079 -4.721 C 506.419 -4.391 505.759 -4.061 505.079 -3.721 C 504.396 -1.929 504.396 -1.929 503.829 0.154 C 502.639 3.531 502.29 4.14 499.142 6.216 C 494.483 7.833 490.795 8.395 485.829 8.341 C 484.751 8.332 483.674 8.323 482.563 8.314 C 481.744 8.302 480.924 8.291 480.079 8.279 C 479.749 4.979 479.419 1.679 479.079 -1.721 C 478.089 -2.051 477.099 -2.381 476.079 -2.721 C 473.563 -7.732 472.863 -13.232 472.079 -18.721 C 471.089 -19.711 471.089 -19.711 470.079 -20.721 C 469.045 -25.333 468.647 -28.255 470.579 -32.596 C 472.646 -37.402 472.216 -41.689 471.079 -46.721 C 469.693 -49.822 468.792 -51.26 465.954 -53.096 C 464.079 -54.721 464.079 -54.721 463.267 -58.346 C 463.205 -59.46 463.143 -60.574 463.079 -61.721 C 463.409 -62.051 463.739 -62.381 464.079 -62.721 C 464.12 -64.721 464.122 -66.722 464.079 -68.721 C 462.821 -68.824 461.563 -68.927 460.267 -69.034 C 456.68 -69.466 455.566 -70.126 453.079 -72.721 C 449.565 -73.628 449.565 -73.628 446.079 -73.721 C 445.419 -73.061 444.759 -72.401 444.079 -71.721 C 440.831 -71.219 437.549 -71.304 434.267 -71.284 C 433.364 -71.251 432.461 -71.218 431.53 -71.184 C 424.805 -71.13 424.805 -71.13 421.13 -74.123 C 420.453 -74.981 419.776 -75.838 419.079 -76.721 C 418.089 -77.381 417.099 -78.041 416.079 -78.721 C 415.401 -81.051 414.735 -83.385 414.079 -85.721 C 413.543 -86.216 413.007 -86.711 412.454 -87.221 C 411.079 -88.721 411.079 -88.721 410.856 -91.776 C 411.108 -96.235 412.005 -100.08 413.267 -104.35 C 413.463 -105.08 413.66 -105.82 413.862 -106.58 C 415.701 -112.89 418.699 -116.18 424.267 -119.78 C 427.173 -121.79 427.618 -122.7 429.079 -125.72 C 430.717 -126.77 432.39 -127.76 434.079 -128.72 C 434.99 -129.28 435.902 -129.83 436.841 -130.41 C 456.505 -142.19 456.505 -142.19 469.079 -138.72 Z" fill="#7C8E22" style="paint-order: fill; fill-rule: evenodd;"/>
      <path d="M 464.711 -315.9 C 475.835 -312.19 481.949 -303.64 487.086 -293.59 C 491.772 -284 492.546 -272.46 489.664 -262.15 C 487.984 -258.11 486.136 -254.53 483.711 -250.9 C 488.119 -251.39 489.81 -252.6 492.711 -255.9 C 494.017 -257.95 495.266 -260.03 496.461 -262.15 C 497.075 -263.22 497.688 -264.3 498.321 -265.41 C 499.009 -266.64 499.009 -266.64 499.711 -267.9 C 501.196 -267.4 501.196 -267.4 502.711 -266.9 C 503.892 -264.44 504.893 -262.07 505.836 -259.52 C 506.101 -258.84 506.365 -258.15 506.637 -257.45 C 511.453 -244.88 511.092 -232.34 505.711 -219.9 C 501.441 -211.51 494.725 -203.95 485.649 -200.9 C 484.343 -200.54 483.032 -200.2 481.711 -199.9 C 481.732 -200.61 481.753 -201.31 481.774 -202.04 C 481.578 -211.77 478.421 -219.46 474.621 -228.3 C 472.984 -232.12 471.747 -235.88 470.711 -239.9 C 462.612 -227.87 459.203 -218.11 461.711 -203.78 C 462.036 -202.15 462.366 -200.52 462.711 -198.9 C 451.784 -200.81 444.311 -204.84 437.711 -213.9 C 432.5 -222.35 431.428 -232.81 433.176 -242.47 C 435.95 -252.94 442.18 -260.66 449.17 -268.65 C 453.703 -273.83 457.908 -279.14 461.711 -284.9 C 462.238 -285.67 462.766 -286.44 463.309 -287.24 C 467.745 -294.66 467.567 -302.51 466.711 -310.9 C 465.79 -313.76 465.79 -313.76 464.711 -315.9 Z" fill="#F7C831" style="paint-order: fill; fill-rule: evenodd;"/>
      <path d="M 436.136 -188.94 C 460.226 -188.94 484.316 -188.94 509.136 -188.94 C 509.136 -181.94 509.136 -181.94 507.261 -179.06 C 503.941 -175.74 501.983 -175.8 497.389 -175.74 C 496.184 -175.73 494.979 -175.71 493.738 -175.7 C 488.224 -175.65 482.711 -175.61 477.198 -175.59 C 474.287 -175.57 471.377 -175.55 468.466 -175.51 C 464.949 -175.45 461.433 -175.43 457.916 -175.42 C 455.928 -175.41 453.94 -175.38 451.952 -175.35 C 443.063 -175.37 443.063 -175.37 438.839 -177.97 C 437.136 -180.94 437.136 -180.94 436.136 -188.94 Z" fill="#F2C333" style="paint-order: fill; fill-rule: evenodd;"/>
    </g>
  </g>
  <defs>
    <bx:grid x="36.291" y="9.055" width="1016.487" height="1062.593"/>
  </defs>
</svg>